<svg xmlns="http://www.w3.org/2000/svg" xmlns:xlink="http://www.w3.org/1999/xlink" width="106" height="106" viewBox="0 0 106 106"><defs><path id="gi84a" d="M950 1155a3 3 0 0 1 3-3h100a3 3 0 0 1 3 3v100a3 3 0 0 1-3 3H953a3 3 0 0 1-3-3z"/><path id="gi84b" d="M1038 1230.97v9.03h-51.94v-9.03h12.42v-2.26h-2.25v-6.77h2.25v-2.26h-3.85l-6.36-6.37a7.52 7.52 0 0 1 4-12.7l19.07-17.06H995.1v-2.26h-4.52v4.52h-17.2l-5.38-2.7v-4.08h9.03v-2.26H968v-4.08l5.38-2.69h17.2v4.52h4.52v-2.26h25.96a5.65 5.65 0 0 1 5.65 5.64v8c0 .99-.43 1.92-1.18 2.57l-1.08.92v4.52c0 1.63-.7 3.19-1.95 4.26l-13.09 11.35h9.4v10.16h-4.52v2.26h2.26v6.77h-2.26v2.26zm-56.45-58.71h-7.64l-3.65 1.82v.44h9.03v6.77h-9.03v.43l3.65 1.83h7.64zm6.77 0h-4.51v11.29h4.51zm6.78 4.51h-4.52v2.26h4.52zm19.19 47.42h-2.26v2.26h2.26zm-13.55 4.52v2.26h11.3v-2.26zm4.52-2.26v-2.26H1003v2.26zm4.51 0v-2.26h-2.25v2.26zm2.26-4.51v-2.26h-11.29v2.26zm10.16-30.61l-18.66 16 2.2 2.19h.23l15.06-13.05a3.39 3.39 0 0 0 1.17-2.56zm-22.58-16.81h-2.26v6.77h2.26zm24.84 6.77v-3.39a3.4 3.4 0 0 0-3.39-3.38h-19.19v6.77zm-28.94 19.45c1.27.34 2.43 1 3.39 1.95l3.03 3.03 22.13-18.97c.25-.21.4-.52.4-.85v-2.35h-9.74zm21.04 16.68v-5.65h-11.76l-7.5-7.49a5.26 5.26 0 0 0-7.44 7.44l5.71 5.7zm-18.07 9.03h2.26v-2.26h-2.26zm37.26 6.78h-47.42v4.51h2.26v-2.26h2.26v2.26h2.26v-2.26h2.25v2.26h2.26v-2.26h2.26v2.26h2.26v-2.26h2.26v2.26h2.26v-2.26h2.25v2.26h2.26v-2.26h2.26v2.26h2.26v-2.26h2.26v2.26h2.25v-2.26h2.26v2.26h2.26v-2.26h2.26v2.26h2.26v-2.26h2.25v2.26h2.26z"/><path id="gi84c" d="M996.23 1207.82a2.83 2.83 0 1 1-5.65 0 2.83 2.83 0 0 1 5.65 0zm-2.26 0a.57.57 0 0 0-.57-.56.57.57 0 0 0-.56.56c0 .31.25.57.56.57.31 0 .57-.26.57-.57z"/></defs><g><g transform="translate(-950 -1152)"><use fill="#554e4e" xlink:href="#gi84a"/></g><g transform="translate(-950 -1152)"><use fill="#fece0b" xlink:href="#gi84b"/></g><g transform="translate(-950 -1152)"><use fill="#fff" xlink:href="#gi84c"/></g></g></svg>