<svg xmlns="http://www.w3.org/2000/svg" xmlns:xlink="http://www.w3.org/1999/xlink" width="106" height="106" viewBox="0 0 106 106"><defs><path id="6zwga" d="M950 1001a3 3 0 0 1 3-3h100a3 3 0 0 1 3 3v100a3 3 0 0 1-3 3H953a3 3 0 0 1-3-3z"/><path id="6zwgb" d="M1038 1037v47.83c0 .65-.52 1.17-1.17 1.17H1031c-.65 0-1.17-.52-1.17-1.17V1044h-53.66v40.83c0 .65-.53 1.17-1.17 1.17h-5.83c-.65 0-1.17-.52-1.17-1.17v-49c0-.42.23-.81.6-1.02l33.84-18.66c.36-.2.8-.2 1.15.01l33.83 19.83c.36.21.58.6.58 1zm-2.33.67l-32.69-19.16-32.65 18.01v47.15h3.5v-40.84c0-.64.53-1.16 1.17-1.16h56c.65 0 1.17.52 1.17 1.16v40.84h3.5z"/><path id="6zwgc" d="M1027.5 1070.84v14c0 .64-.52 1.16-1.16 1.16h-14c-.65 0-1.17-.52-1.17-1.16v-14c0-.65.52-1.17 1.17-1.17h14c.64 0 1.16.52 1.16 1.17zm-2.33 12.83V1072h-11.67v11.67z"/><path id="6zwgd" d="M1020.5 1070.83v3.5h-2.34v-3.5h-2.33v4.67c0 .64.52 1.16 1.17 1.16h4.66c.65 0 1.17-.52 1.17-1.16v-4.67z"/><path id="6zwge" d="M1013.5 1070.84v14c0 .64-.52 1.16-1.16 1.16h-14c-.65 0-1.17-.52-1.17-1.16v-14c0-.65.52-1.17 1.17-1.17h14c.64 0 1.16.52 1.16 1.17zm-2.33 1.16H999.5v11.67h11.67z"/><path id="6zwgf" d="M1006.5 1070.83v3.5h-2.34v-3.5h-2.33v4.67c0 .64.52 1.16 1.17 1.16h4.66c.65 0 1.17-.52 1.17-1.16v-4.67z"/><path id="6zwgg" d="M1027.5 1056.84v14c0 .64-.52 1.16-1.16 1.16h-14c-.65 0-1.17-.52-1.17-1.16v-14c0-.65.52-1.17 1.17-1.17h14c.64 0 1.16.52 1.16 1.17zm-2.33 12.83V1058h-11.67v11.67z"/><path id="6zwgh" d="M1020.5 1056.83v3.5h-2.34v-3.5h-2.33v4.67c0 .64.52 1.16 1.17 1.16h4.66c.65 0 1.17-.52 1.17-1.16v-4.67z"/><path id="6zwgi" d="M975 1053.33V1051h56v2.33z"/><path id="6zwgj" d="M975 1048.66v-2.33h56v2.33z"/><path id="6zwgk" d="M1010 1033.5v4.66c0 .65-.52 1.17-1.17 1.17h-11.66c-.65 0-1.17-.52-1.17-1.17v-4.66c0-.65.52-1.17 1.17-1.17h11.66c.65 0 1.17.52 1.17 1.17zm-2.33 1.16h-9.34v2.34h9.34z"/></defs><g><g transform="translate(-950 -998)"><use fill="#554e4e" xlink:href="#6zwga"/></g><g transform="translate(-950 -998)"><use fill="#fece0b" xlink:href="#6zwgb"/></g><g transform="translate(-950 -998)"><use fill="#fff" xlink:href="#6zwgc"/></g><g transform="translate(-950 -998)"><use fill="#fff" xlink:href="#6zwgd"/></g><g transform="translate(-950 -998)"><use fill="#fff" xlink:href="#6zwge"/></g><g transform="translate(-950 -998)"><use fill="#fff" xlink:href="#6zwgf"/></g><g transform="translate(-950 -998)"><use fill="#fff" xlink:href="#6zwgg"/></g><g transform="translate(-950 -998)"><use fill="#fff" xlink:href="#6zwgh"/></g><g transform="translate(-950 -998)"><use fill="#fece0b" xlink:href="#6zwgi"/></g><g transform="translate(-950 -998)"><use fill="#fece0b" xlink:href="#6zwgj"/></g><g transform="translate(-950 -998)"><use fill="#fff" xlink:href="#6zwgk"/></g></g></svg>