<svg xmlns="http://www.w3.org/2000/svg" xmlns:xlink="http://www.w3.org/1999/xlink" width="106" height="106" viewBox="0 0 106 106"><defs><path id="bxqta" d="M950 1309a3 3 0 0 1 3-3h100a3 3 0 0 1 3 3v100a3 3 0 0 1-3 3H953a3 3 0 0 1-3-3z"/><path id="bxqtb" d="M1037.86 1364.63v27.94c0 .65-.52 1.17-1.16 1.17h-67.54c-.69 0-1.23-.6-1.15-1.3l2.33-20.96c.06-.59.56-1.03 1.15-1.03h1.25l2.25-30.36c.04-.61.55-1.08 1.16-1.08h6.99c.6 0 1.11.47 1.16 1.08l2.25 30.36h4.74v-8.88a2.77 2.77 0 0 1 2.77-2.77h3.78a2.77 2.77 0 0 1 2.76 2.77v8.88h3.26l16.08-6.9c.77-.32 1.62.24 1.62 1.08v5.22l14.68-6.3c.77-.32 1.62.24 1.62 1.08zm-44.24-3.06v8.88h4.65v-8.88c0-.24-.2-.44-.43-.44h-3.78c-.25 0-.44.2-.44.44zm-4.52 11.2l2.07 18.64h11.76v-18.63zm-14.02-2.32h9.13l-2.15-29.11h-4.83zm-4.61 20.96h4.52v-8.15c0-.65.52-1.17 1.16-1.17h6.99c.64 0 1.16.52 1.16 1.17v8.15h4.52l-1.15-10.35-.92-8.28h-14.21zm11.5 0v-6.99h-4.65v6.99zm23.3-19.03v19.03h3.48v-6.99c0-.64.53-1.16 1.17-1.16h4.66c.64 0 1.16.52 1.16 1.16v6.99h3.5v-25.02l-13.98 6zm8.14 19.03v-5.82h-2.33v5.82zm16.3-5.82h-2.33v5.82h2.33zm5.83 5.82v-25.02l-13.98 6v19.02h3.5v-6.99c0-.64.52-1.16 1.16-1.16h4.66c.64 0 1.16.52 1.16 1.16v6.99z"/><path id="bxqtc" d="M979.7 1335.15c.3-.9 1.02-2.15 2.34-3.39 2.16-2.02 5.2-3.23 9.25-3.23h1.9c.42-.32 1.04-.7 1.86-1.06 1.8-.8 4.02-1.26 6.71-1.26.76-.01 1.74.1 2.73.46s1.8.91 2.34 1.66a10.28 10.28 0 0 1 7.68-3.3c.88-.07 2.15.3 3.77 1.37a14 14 0 0 1 3.97 4.18c1.88 2.94 4.12 4.94 6.3 4.94l.2.02c.43.04.97-.06 1.48-.4 1.1-.72 1.81-2.4 1.81-5.44 0-1.01 1.2-1.54 1.94-.87l.31.3c6.04 6.26 1.58 16.66-7.13 16.86-.28 0-.57 0-.98.02a8.14 8.14 0 0 1-5.68-1.86c-.51.55-1.1 1.09-1.74 1.6-2 1.58-4.16 2.56-6.5 2.58a6.71 6.71 0 0 1-2.8-.44 13.92 13.92 0 0 1-5.05-3.42c-.77.7-2.04 1.12-3.64 1.35-1.2.17-2.44.21-3.66.18-3.17 0-5.41-1.82-6.82-4.73a14.77 14.77 0 0 1-1.31-4.37c-.21-1.1-1.31-1.54-3.38-1.35a15.82 15.82 0 0 0-3.9.89c-.23.08-.4.13-.47.17a1.16 1.16 0 0 1-1.53-1.46zm3.88-1.64a16.1 16.1 0 0 1 1.81-.28c3.1-.28 5.38.62 5.89 3.33a12.48 12.48 0 0 0 1.1 3.7c1.06 2.18 2.58 3.41 4.78 3.41h.17c.95.03 2.06 0 3.1-.16a5.32 5.32 0 0 0 2.3-.71l-1.79-1.8a1.16 1.16 0 0 1 1.65-1.65l3.5 3.5a11.58 11.58 0 0 0 4.16 2.84c.8.29 1.41.36 1.8.33l.2-.02c1.7 0 3.42-.77 5.07-2.08a14.63 14.63 0 0 0 2.15-2.12 1.16 1.16 0 0 1 1.75-.12 6.54 6.54 0 0 0 3.24 1.86c.61.15 1.14.18 1.59.14h.17l.88-.02a7.73 7.73 0 0 0 6.97-10.8c-.43 2-1.3 3.4-2.55 4.22a4.62 4.62 0 0 1-3.05.77c-3.2-.04-5.92-2.48-8.18-6.02a11.7 11.7 0 0 0-3.3-3.49 6.6 6.6 0 0 0-1.79-.9c-.27-.07-.42-.09-.41-.09l-.22.02a7.98 7.98 0 0 0-7.1 4c-.54 1.11-2.21.73-2.21-.5 0-1.03-.53-1.63-1.56-2.01a5.71 5.71 0 0 0-1.93-.33c-2.37 0-4.28.4-5.78 1.07-.85.38-1.36.73-1.56.93-.22.21-.5.33-.82.33h-2.32c-3.45 0-5.93.98-7.7 2.65z"/><path id="bxqtd" d="M1008.75 1378.6v-4.66c0-.64.52-1.16 1.16-1.16h4.66c.64 0 1.17.52 1.17 1.16v4.66c0 .64-.53 1.17-1.17 1.17h-4.66c-.64 0-1.16-.53-1.16-1.17zm2.33-1.16h2.33v-2.33h-2.33z"/><path id="bxqte" d="M1025.06 1378.6v-4.66c0-.64.52-1.16 1.16-1.16h4.66c.64 0 1.17.52 1.17 1.16v4.66c0 .64-.53 1.17-1.17 1.17h-4.66c-.64 0-1.16-.53-1.16-1.17zm2.33-1.16h2.33v-2.33h-2.33z"/></defs><g><g transform="translate(-950 -1306)"><use fill="#554e4e" xlink:href="#bxqta"/></g><g transform="translate(-950 -1306)"><use fill="#fece0b" xlink:href="#bxqtb"/></g><g transform="translate(-950 -1306)"><use fill="#fff" xlink:href="#bxqtc"/></g><g transform="translate(-950 -1306)"><use fill="#fff" xlink:href="#bxqtd"/></g><g transform="translate(-950 -1306)"><use fill="#fff" xlink:href="#bxqte"/></g></g></svg>