<svg xmlns="http://www.w3.org/2000/svg" xmlns:xlink="http://www.w3.org/1999/xlink" width="106" height="106" viewBox="0 0 106 106"><defs><path id="8m3wa" d="M950 847a3 3 0 0 1 3-3h100a3 3 0 0 1 3 3v100a3 3 0 0 1-3 3H953a3 3 0 0 1-3-3z"/><path id="8m3wb" d="M1038 865.29v67.92c0 .7-.56 1.26-1.25 1.26h-67.5c-.7 0-1.25-.56-1.25-1.26V865.3c0-.7.56-1.26 1.25-1.26H978v-3.77c0-.7.56-1.26 1.25-1.26H988c.7 0 1.25.56 1.25 1.26v3.77h27.5v-3.77c0-.7.56-1.26 1.25-1.26h8.75c.7 0 1.25.56 1.25 1.26v3.77h8.75c.7 0 1.25.56 1.25 1.26zm-18.75 3.77h6.25v-7.54h-6.25zm-38.75 0h6.25v-7.54h-6.25zm-10 8.8h65v-11.31h-7.5v3.77c0 .7-.56 1.26-1.25 1.26H1018c-.7 0-1.25-.56-1.25-1.26v-3.77h-27.5v3.77c0 .7-.56 1.26-1.25 1.26h-8.75c-.7 0-1.25-.56-1.25-1.26v-3.77h-7.5zm65 54.1v-51.58h-65v51.57z"/><path id="8m3wc" d="M1025.97 887.44v36.1h-47.03v-36.1zm-22.28 11.2h8.67v-8.71h-8.67zm8.67 2.5h-8.67v8.7h8.67zm-19.8 8.7h8.66v-8.7h-8.67zm0-11.2h8.66v-8.71h-8.67zm-11.14 0h8.66v-8.71h-8.66zm0 11.2h8.66v-8.7h-8.66zm8.66 2.5h-8.66v8.7h8.66zm11.14 0h-8.67v8.7h8.67zm11.14 0h-8.67v8.7h8.67zm11.14 0h-8.67v8.7h8.67zm0-11.2h-8.67v8.7h8.67zm-8.67-11.21v8.71h8.67v-8.71z"/></defs><g><g transform="translate(-950 -844)"><use fill="#554e4e" xlink:href="#8m3wa"/></g><g transform="translate(-950 -844)"><use fill="#fece0b" xlink:href="#8m3wb"/></g><g transform="translate(-950 -844)"><use fill="#fff" xlink:href="#8m3wc"/></g></g></svg>