<svg xmlns="http://www.w3.org/2000/svg" xmlns:xlink="http://www.w3.org/1999/xlink" width="15" height="19" viewBox="0 0 15 19"><defs><path id="wnufa" d="M1015 3805a1 1 0 0 1 1-1h16a1 1 0 0 1 0 2h-16a1 1 0 0 1-1-1z"/><path id="wnufb" d="M1025.65 3798.65a1 1 0 0 1 1.42 0l5.66 5.66a1 1 0 0 1-1.41 1.41l-5.67-5.65a1 1 0 0 1 0-1.42z"/><path id="wnufc" d="M1025.65 3811.43a1 1 0 0 1 0-1.42l5.66-5.66a1 1 0 0 1 1.41 1.41l-5.65 5.67a1 1 0 0 1-1.42 0z"/></defs><g><g transform="translate(-1017 -3795)"><use fill="#554e4e" xlink:href="#wnufa"/></g><g transform="translate(-1017 -3795)"><use fill="#554e4e" xlink:href="#wnufb"/></g><g transform="translate(-1017 -3795)"><use fill="#554e4e" xlink:href="#wnufc"/></g></g></svg>