<svg xmlns="http://www.w3.org/2000/svg" xmlns:xlink="http://www.w3.org/1999/xlink" width="18" height="14" viewBox="0 0 18 14"><defs><path id="6555a" d="M706 4012a1 1 0 0 1 1-1h16a1 1 0 0 1 0 2h-16a1 1 0 0 1-1-1z"/><path id="6555b" d="M716.65 4005.65a1 1 0 0 1 1.42 0l5.66 5.66a1 1 0 0 1-1.41 1.41l-5.67-5.65a1 1 0 0 1 0-1.42z"/><path id="6555c" d="M716.65 4018.43a1 1 0 0 1 0-1.42l5.66-5.66a1 1 0 0 1 1.41 1.41l-5.65 5.67a1 1 0 0 1-1.42 0z"/></defs><g><g transform="translate(-706 -4005)"><use fill="#554e4e" xlink:href="#6555a"/></g><g transform="translate(-706 -4005)"><use fill="#554e4e" xlink:href="#6555b"/></g><g transform="translate(-706 -4005)"><use fill="#554e4e" xlink:href="#6555c"/></g></g></svg>