<?xml version="1.0" encoding="UTF-8"?>
<svg width="40px" height="56px" viewBox="0 0 40 56" version="1.1" xmlns="http://www.w3.org/2000/svg" xmlns:xlink="http://www.w3.org/1999/xlink">
    <!-- Generator: Sketch 48.2 (47327) - http://www.bohemiancoding.com/sketch -->
    <title>maps-and-flags</title>
    <desc>Created with Sketch.</desc>
    <defs></defs>
    <g id="Главная" stroke="none" stroke-width="1" fill="none" fill-rule="evenodd" transform="translate(-927.000000, -3395.000000)">
        <g id="Контакты" transform="translate(0.000000, 3000.000000)" fill="#3b3636" fill-rule="nonzero">
            <g id="Group-5" transform="translate(616.000000, 261.000000)">
                <g id="maps-and-flags" transform="translate(311.000000, 134.000000)">
                    <path d="M20,0 C9.00591398,0 0.0616129032,8.94430108 0.0616129032,19.9382796 C0.0616129032,33.5821505 17.9045161,53.6121505 18.6641935,54.458172 C19.3777419,55.2529032 20.6235484,55.2515054 21.3358065,54.458172 C22.0954839,53.6121505 39.9383871,33.5821505 39.9383871,19.9382796 C39.938172,8.94430108 30.9939785,0 20,0 Z M20,29.9697849 C14.4686022,29.9697849 9.96860215,25.4696774 9.96860215,19.9382796 C9.96860215,14.4068817 14.4687097,9.90688172 20,9.90688172 C25.5312903,9.90688172 30.0312903,14.4069892 30.0312903,19.9383871 C30.0312903,25.4697849 25.5312903,29.9697849 20,29.9697849 Z" id="Shape"></path>
                </g>
            </g>
        </g>
    </g>
</svg>