<svg xmlns="http://www.w3.org/2000/svg" xmlns:xlink="http://www.w3.org/1999/xlink" width="100" height="100" viewBox="0 0 100 100"><defs><path id="pssba" d="M827.39 1810.03H850V1831H827.4v-2.88l-6.3 1.26-21.44-.03-16.52-3.36-7.96-3.93a4.61 4.61 0 0 1 .58-8.55 4.65 4.65 0 0 1 3.68.33l3.54 1.94-.48-1.45a4.5 4.5 0 0 1 4.25-5.92c1.84 0 3.48 1.1 4.16 2.82l2.09 5.22 5.07-.02-3.49-1.85a4.99 4.99 0 0 1 4-9.1l13.59 4.82 4.43 2.95h10.8zm-41.85 3.27l1.07 3.17 2.9-.01-1.6-4.03c-.35-.86-1.65-1.02-2.2-.27-.24.34-.3.75-.17 1.14zm45.08 14.47h16.16v-14.51h-9.68v11.29h-3.22v-11.3h-3.26zm-3.23-11.3h-11.78l-5.07-3.38-13.04-4.57a1.75 1.75 0 0 0-2.27 1.15c-.24.8.12 1.66.86 2.06l9.01 4.79-6.36 3.18h-15.31l-5.54-3.02a1.37 1.37 0 0 0-1.12-.1c-.37.12-.67.39-.83.75-.32.7-.03 1.5.65 1.84l7.78 3.83 15.76 3.15h20.65l6.61-1.32z"/><path id="pssbb" d="M769.35 1792.29a9.69 9.69 0 0 1-19.35 0c0-4.79 3.5-8.76 8.06-9.53v-9.82h12.9v-25.81h14.52v3.22H774.2v22.59h24.2v-9.68h-1.62a8.07 8.07 0 0 1-8.06-8.07h3.23a4.84 4.84 0 0 0 4.83 4.84h6.46a4.84 4.84 0 0 0 0-9.68h-6.46a8.07 8.07 0 0 1 0-16.12h1.62V1731h3.22v3.23h1.62a8.07 8.07 0 0 1 8.06 8.06h-3.23a4.84 4.84 0 0 0-4.83-4.84h-6.46a4.84 4.84 0 0 0 0 9.68h6.46a8.07 8.07 0 0 1 0 16.13h-1.62v9.68h24.2v-22.59h-11.3v-3.22h14.52v25.8h12.9v9.83a9.69 9.69 0 0 1 8.07 9.53 9.69 9.69 0 0 1-19.35 0c0-4.79 3.49-8.76 8.06-9.53v-6.6h-22.58v6.6a9.69 9.69 0 0 1 8.06 9.53 9.69 9.69 0 0 1-19.35 0c0-4.79 3.5-8.76 8.06-9.53v-6.6h-25.8v6.6a9.69 9.69 0 0 1 8.06 9.53 9.69 9.69 0 0 1-19.35 0c0-4.79 3.5-8.76 8.06-9.53v-6.6H761.3v6.6a9.69 9.69 0 0 1 8.06 9.53zm70.97-6.45a6.46 6.46 0 1 0 .02 12.91 6.46 6.46 0 0 0-.02-12.91zm-25.8 0a6.46 6.46 0 1 0 0 12.91 6.46 6.46 0 0 0 0-12.91zm-29.04 0a6.46 6.46 0 1 0 .02 12.91 6.46 6.46 0 0 0-.02-12.91zm-19.35 6.45a6.46 6.46 0 1 0-12.92.01 6.46 6.46 0 0 0 12.92-.01z"/><path id="pssbc" d="M758.06 1793.91v-3.23h3.23v3.23z"/><path id="pssbd" d="M783.87 1793.91v-3.23h3.23v3.23z"/><path id="pssbe" d="M812.9 1793.91v-3.23h3.23v3.23z"/><path id="pssbf" d="M838.71 1793.91v-3.23h3.23v3.23z"/></defs><g><g transform="translate(-750 -1731)"><use fill="#fff" xlink:href="#pssba"/></g><g transform="translate(-750 -1731)"><use fill="#fece0b" xlink:href="#pssbb"/></g><g transform="translate(-750 -1731)"><use fill="#fff" xlink:href="#pssbc"/></g><g transform="translate(-750 -1731)"><use fill="#fff" xlink:href="#pssbd"/></g><g transform="translate(-750 -1731)"><use fill="#fff" xlink:href="#pssbe"/></g><g transform="translate(-750 -1731)"><use fill="#fff" xlink:href="#pssbf"/></g></g></svg>