<svg xmlns="http://www.w3.org/2000/svg" xmlns:xlink="http://www.w3.org/1999/xlink" width="100" height="100" viewBox="0 0 100 100"><defs><path id="ke5ca" d="M1242 1746v76.67c0 4.6-3.74 8.33-8.33 8.33h-83.34a8.34 8.34 0 0 1-8.33-8.33V1746c0-4.6 3.74-8.33 8.33-8.33H1162V1736a5 5 0 0 1 10 0v1.67h40V1736a5 5 0 0 1 10 0v1.67h11.67c4.6 0 8.33 3.73 8.33 8.33zm-26.67 3.33a1.67 1.67 0 0 0 3.34 0V1736a1.67 1.67 0 0 0-3.34 0zm-6.66 4.17c0 2.3 1.86 4.17 4.16 4.17h8.34a4.17 4.17 0 0 0 .82-8.25 5 5 0 0 1-9.98 0 4.17 4.17 0 0 0-3.34 4.08zm-43.34-4.17a1.67 1.67 0 0 0 3.34 0V1736a1.67 1.67 0 0 0-3.34 0zm-6.66 4.17c0 2.3 1.86 4.17 4.16 4.17h8.34a4.17 4.17 0 0 0 .82-8.25 5 5 0 0 1-9.98 0 4.17 4.17 0 0 0-3.34 4.08zm80 14.17h-93.34v55a5 5 0 0 0 5 5h83.34a5 5 0 0 0 5-5zm0-21.67a5 5 0 0 0-5-5H1222v5.08a7.48 7.48 0 0 1-.83 14.92h-8.34a7.48 7.48 0 1 1-.83-14.91V1741h-40v5.08a7.48 7.48 0 0 1-.83 14.92h-8.34a7.48 7.48 0 1 1-.83-14.91V1741h-11.67a5 5 0 0 0-5 5v18.33h93.34z"/><path id="ke5cb" d="M1162 1774.33V1771h3.33v3.33z"/><path id="ke5cc" d="M1155.33 1774.33V1771h3.33v3.33z"/><path id="ke5cd" d="M1148.67 1774.33V1771h3.33v3.33z"/><path id="ke5ce" d="M1233.66 1811v6.66c0 .82-.59 1.51-1.39 1.65l-10 1.66-.27.03c-.44 0-.87-.18-1.18-.5l-1.18-1.17H1197v3.33c0 .93-.75 1.67-1.67 1.67h-6.67c-.44 0-.86-.17-1.18-.49l-2.15-2.15-2.15 2.15c-.32.32-.74.49-1.18.49h-30c-.93 0-1.67-.74-1.67-1.67V1806c0-.93.74-1.67 1.67-1.67h29.79c.42 0 .83.16 1.14.45l2.33 2.2 1.98-2.12c.32-.34.76-.53 1.22-.53h6.87c.92 0 1.67.74 1.67 1.67v3.33h22.64l1.18-1.18c.38-.38.92-.55 1.45-.46l10 1.66c.8.14 1.4.83 1.4 1.65zm-40-3.34h-4.48l-2.63 2.81c-.3.33-.72.51-1.17.53a1.6 1.6 0 0 1-1.2-.45l-3.05-2.89h-27.47V1821h27.65l2.84-2.85c.65-.65 1.7-.65 2.36 0l2.84 2.85h4.31zm36.67 4.75l-7.76-1.3-1.06 1.07c-.31.3-.74.48-1.18.48H1197v3.34h23.33c.44 0 .87.17 1.18.48l1.06 1.06 7.76-1.29z"/><path id="ke5cf" d="M1231.84 1793.61c.28.58.2 1.26-.2 1.76l-6.67 8.34c-.32.4-.8.62-1.3.62h-10c-.44 0-.87-.17-1.18-.48l-9.51-9.52h-47.64a6.67 6.67 0 0 1 0-13.33h47.64l9.51-9.51c.31-.32.74-.49 1.18-.49h10c.5 0 .98.23 1.3.62l6.67 8.34a1.67 1.67 0 0 1-1.3 2.7h-10.84l-3.75 5 3.75 5h10.84c.64 0 1.22.37 1.5.95zm-4.97 2.39h-8.2c-.53 0-1.02-.25-1.33-.67l-5-6.67c-.45-.59-.45-1.4 0-2l5-6.66c.31-.42.8-.67 1.33-.67h8.2l-4-5h-8.51l-9.51 9.51c-.31.32-.74.5-1.18.5h-48.33a3.34 3.34 0 0 0 0 6.66h48.33c.44 0 .87.17 1.18.49l9.51 9.5h8.51z"/><path id="ke5cg" d="M1157 1814.33V1811h11.67v3.33z"/><path id="ke5ch" d="M1172 1814.33V1811h3.33v3.33z"/></defs><g><g transform="translate(-1142 -1731)"><use fill="#fece0b" xlink:href="#ke5ca"/></g><g transform="translate(-1142 -1731)"><use fill="#fff" xlink:href="#ke5cb"/></g><g transform="translate(-1142 -1731)"><use fill="#fff" xlink:href="#ke5cc"/></g><g transform="translate(-1142 -1731)"><use fill="#fff" xlink:href="#ke5cd"/></g><g transform="translate(-1142 -1731)"><use fill="#fece0b" xlink:href="#ke5ce"/></g><g transform="translate(-1142 -1731)"><use fill="#fff" xlink:href="#ke5cf"/></g><g transform="translate(-1142 -1731)"><use fill="#fff" xlink:href="#ke5cg"/></g><g transform="translate(-1142 -1731)"><use fill="#fff" xlink:href="#ke5ch"/></g></g></svg>