<svg xmlns="http://www.w3.org/2000/svg" xmlns:xlink="http://www.w3.org/1999/xlink" width="100" height="100" viewBox="0 0 100 100"><defs><path id="q597a" d="M451.49 1827.77v-78.36L408 1731l-43.48 18.4v78.37h-6.44v3.23h9.65v-79.47L408 1734.5l40.28 17.03V1831h9.64v-3.23z"/><path id="q597b" d="M372.57 1764.96V1831h3.23v-62.81h64.4V1831h3.24v-66.04z"/><path id="q597c" d="M406.39 1808.44V1831h-25.77v-22.56zm-14.51 6.46h3.23v-3.23h-3.23zm11.3-3.23h-4.84v6.44h-9.67v-6.44h-4.82v16.1h19.33z"/><path id="q597d" d="M435.38 1808.44V1831H409.6v-22.56zm-14.51 6.46h3.23v-3.23h-3.23zm11.28 12.87v-16.1h-4.84v6.44h-9.67v-6.44h-4.82v16.1z"/><path id="q597e" d="M395.11 1782.67h25.77v22.56H395.1zm11.28 3.23v3.23h3.23v-3.23zm-8.05 16.1h19.3v-16.1h-4.81v6.44h-9.67v-6.44h-4.82z"/><path id="q597f" d="M406.39 1753.7v-3.23h3.23v3.23z"/><path id="q597g" d="M412.82 1753.7v-3.23h3.23v3.23z"/><path id="q597h" d="M399.95 1753.7v-3.23h3.23v3.23z"/></defs><g><g transform="translate(-358 -1731)"><use fill="#fece0b" xlink:href="#q597a"/></g><g transform="translate(-358 -1731)"><use fill="#fece0b" xlink:href="#q597b"/></g><g transform="translate(-358 -1731)"><use fill="#fff" xlink:href="#q597c"/></g><g transform="translate(-358 -1731)"><use fill="#fff" xlink:href="#q597d"/></g><g transform="translate(-358 -1731)"><use fill="#fff" xlink:href="#q597e"/></g><g transform="translate(-358 -1731)"><use fill="#fff" xlink:href="#q597f"/></g><g transform="translate(-358 -1731)"><use fill="#fff" xlink:href="#q597g"/></g><g transform="translate(-358 -1731)"><use fill="#fff" xlink:href="#q597h"/></g></g></svg>